<svg xmlns="http://www.w3.org/2000/svg" width="180" height="48" viewBox="0 0 180 48" role="img" aria-labelledby="title">
  <title id="title">GitHub</title>
  <rect x="1" y="1" width="178" height="46" rx="13" fill="#F8F4EB" stroke="#D8DED3" stroke-width="2"/>
  <circle cx="27" cy="24" r="12" fill="#0A5A53"/>
  <path d="M27 14.4a9.7 9.7 0 0 0-3.1 18.9c.5.1.7-.2.7-.5v-1.9c-2.8.6-3.4-1.2-3.4-1.2-.5-1.2-1.1-1.5-1.1-1.5-.9-.6.1-.6.1-.6 1 0 1.6 1 1.6 1 .9 1.6 2.4 1.1 2.9.9.1-.7.4-1.1.6-1.3-2.2-.3-4.6-1.1-4.6-4.8 0-1.1.4-1.9 1-2.6-.1-.3-.4-1.3.1-2.6 0 0 .8-.3 2.7 1a9.3 9.3 0 0 1 4.9 0c1.9-1.3 2.7-1 2.7-1 .5 1.3.2 2.3.1 2.6.6.7 1 1.5 1 2.6 0 3.7-2.3 4.5-4.6 4.8.4.3.7.9.7 1.8v2.7c0 .4.2.6.7.5A9.7 9.7 0 0 0 27 14.4Z" fill="#FFFFFF"/>
  <text x="53" y="30" font-family="Arial, sans-serif" font-size="16" fill="#103F3B">GitHub</text>
</svg>
