<svg xmlns="http://www.w3.org/2000/svg" viewBox="0 0 1200 190" role="img" aria-labelledby="title desc">
  <title id="title">Tropical technology wave</title>
  <desc id="desc">A quiet ocean wave crossed by a small data path.</desc>
  <rect width="1200" height="190" rx="28" fill="#FFF8EC"/>
  <path d="M0 118c168-77 284 45 452 1s270-49 411 3 230 38 337-14v82H0z" fill="#123D35"/>
  <path d="M-30 126c164-72 292 47 465 0s286-47 431 4 252 28 371-30" fill="none" stroke="#1EB8AE" stroke-width="5" stroke-linecap="round">
    <animateTransform attributeName="transform" type="translate" values="-14 0;14 0;-14 0" dur="12s" repeatCount="indefinite"/>
  </path>
  <path d="M74 83h174l40-40h155m314 6h116l42 42h163" fill="none" stroke="#0F7F75" stroke-width="2" opacity=".48"/>
  <g fill="#E87961"><circle cx="74" cy="83" r="5"/><circle cx="288" cy="43" r="5"/><circle cx="443" cy="43" r="5"/><circle cx="757" cy="49" r="5"/><circle cx="915" cy="91" r="5"/><circle cx="1078" cy="91" r="5"/></g>
  <circle cx="600" cy="81" r="29" fill="#E4B866"/><path d="M587 83c10-15 19-18 32-8-8 1-13 7-16 17-3-7-8-10-16-9z" fill="#123D35"/>
</svg>
