<svg xmlns="http://www.w3.org/2000/svg" viewBox="0 0 1200 220" role="img" aria-labelledby="title desc">
  <title id="title">MovieWebApp</title>
  <desc id="desc">A warm cinematic frame and a minimal film strip.</desc>
  <rect width="1200" height="220" rx="28" fill="#E4B866"/>
  <g fill="#123D35">
    <rect x="38" y="35" width="1124" height="150" rx="18"/>
    <g fill="#FFF8EC" opacity=".9">
      <rect x="58" y="52" width="30" height="18" rx="4"/><rect x="104" y="52" width="30" height="18" rx="4"/><rect x="150" y="52" width="30" height="18" rx="4"/>
      <rect x="1020" y="52" width="30" height="18" rx="4"/><rect x="1066" y="52" width="30" height="18" rx="4"/><rect x="1112" y="52" width="30" height="18" rx="4"/>
      <rect x="58" y="150" width="30" height="18" rx="4"/><rect x="104" y="150" width="30" height="18" rx="4"/><rect x="150" y="150" width="30" height="18" rx="4"/>
      <rect x="1020" y="150" width="30" height="18" rx="4"/><rect x="1066" y="150" width="30" height="18" rx="4"/><rect x="1112" y="150" width="30" height="18" rx="4"/>
    </g>
  </g>
  <g transform="translate(246 69)" font-family="Inter,Segoe UI,Arial,sans-serif">
    <rect width="708" height="82" rx="14" fill="#FFF8EC"/>
    <circle cx="54" cy="41" r="23" fill="#E87961"/><path d="M47 29l20 12-20 12z" fill="#FFF8EC"/>
    <text x="105" y="35" fill="#123D35" font-size="22" font-weight="750" letter-spacing="1.5">A COMPLETE SOFTWARE SYSTEM</text>
    <text x="105" y="61" fill="#18302C" font-size="15" opacity=".76">data · ratings · CRUD · persistent storage</text>
    <g transform="translate(625 25)" fill="#E4B866"><path d="M0 0l6 13 14 2-10 10 3 14-13-7-13 7 3-14-10-10 14-2z"/><path d="M42 0l6 13 14 2-10 10 3 14-13-7-13 7 3-14-10-10 14-2z"/></g>
  </g>
</svg>
